# xmcd CD database file
#
# Track frame offsets:
#	150
#	11289
#	22413
#	37291
#	50004
#	61811
#	74255
#	85738
#	98015
#	108090
#	117804
#	129874
#	142683
#	153274
#	164921
#	176712
#	187379
#	200612
#	210328
#	220913
#
# Disc length: 3085 seconds
#
# Revision: 1
# Processed by: cddbd v1.5.2PL0 Copyright (c) Steve Scherf et al.
# Submitted via: CDex 1.51
#
DISCID=1d0c0b14
DTITLE=Marty Robbins - Marty Robbins(1)
DYEAR=2007
DGENRE=Country
TTITLE0=Singing The Blues
TTITLE1=I Can't Quit
TTITLE2=Tennesse Toddy
TTITLE3=Mister Teardrop
TTITLE4=That's All Right
TTITLE5=Gossip
TTITLE6=Maybelline
TTITLE7=Pretty Mama
TTITLE8=Mean Mama Blues
TTITLE9=Long Tall Sally
TTITLE10=Daddy Loves You
TTITLE11=Pray For Me Mother Of Mine
TTITLE12=Don't Let Me Hang Around
TTITLE13=I'll Love You Till The ay I Die
TTITLE14=It Look Like I'm Just In Your wAY
TTITLE15=His Broken Heart Of Mine
TTITLE16=I'm Too Big To Cry
TTITLE17=Call Me Up
TTITLE18=It's A Pity What Money Can Do
TTITLE19=Time Goes By
EXTD=YEAR: 2007
EXTT0=
EXTT1=
EXTT2=
EXTT3=
EXTT4=
EXTT5=
EXTT6=
EXTT7=
EXTT8=
EXTT9=
EXTT10=
EXTT11=
EXTT12=
EXTT13=
EXTT14=
EXTT15=
EXTT16=
EXTT17=
EXTT18=
EXTT19=
PLAYORDER=
